<svg width="25" height="24" viewBox="0 0 25 24" fill="none" xmlns="http://www.w3.org/2000/svg">
<path d="M2.25 12C2.25 14.7848 3.35625 17.4555 5.32538 19.4246C7.29451 21.3938 9.96523 22.5 12.75 22.5C15.5348 22.5 18.2055 21.3938 20.1746 19.4246C22.1438 17.4555 23.25 14.7848 23.25 12C23.25 9.21523 22.1438 6.54451 20.1746 4.57538C18.2055 2.60625 15.5348 1.5 12.75 1.5C9.96523 1.5 7.29451 2.60625 5.32538 4.57538C3.35625 6.54451 2.25 9.21523 2.25 12Z" stroke="black" stroke-linejoin="round"/>
<path d="M6.48602 8.69301C9.04302 8.01101 15.221 7.31501 19.472 9.98201" stroke="black" stroke-linecap="round" stroke-linejoin="round"/>
<path d="M7.02002 12.12C9.06402 11.501 14.114 10.875 17.963 13.315" stroke="black" stroke-linecap="round" stroke-linejoin="round"/>
<path d="M7.36603 15.201C9.37903 14.698 14.108 14.226 16.925 16.364" stroke="black" stroke-linecap="round" stroke-linejoin="round"/>
</svg>
