<svg width="25" height="24" viewBox="0 0 25 24" fill="none" xmlns="http://www.w3.org/2000/svg">
<path d="M17.5 16.5C15.76 18.24 11.751 16.757 9.74697 14.753C7.74297 12.749 6.25997 8.74 7.99997 7C8.50397 6.496 9.19797 6.436 9.62197 6.456C9.86697 6.467 10.079 6.611 10.222 6.811L11.174 8.145C11.3114 8.33763 11.3761 8.57277 11.3565 8.8086C11.3369 9.04444 11.2343 9.26568 11.067 9.433L10.166 10.334C10.332 10.834 10.866 12.034 11.666 12.834C12.466 13.634 13.666 14.168 14.166 14.334L15.067 13.434C15.2342 13.2665 15.4553 13.1637 15.6912 13.1439C15.927 13.1242 16.1622 13.1887 16.355 13.326L17.689 14.278C17.889 14.421 18.033 14.633 18.044 14.878C18.064 15.302 18.004 15.996 17.5 16.5Z" stroke="black" stroke-linejoin="round"/>
<path d="M12.5 22.5C18.299 22.5 23 17.799 23 12C23 6.201 18.299 1.5 12.5 1.5C6.701 1.5 2 6.201 2 12C2 13.912 2.511 15.706 3.405 17.25L2.525 21.975L7.25 21.095C8.84549 22.0181 10.6567 22.5028 12.5 22.5Z" stroke="black" stroke-linejoin="round"/>
</svg>
