<svg width="24" height="25" viewBox="0 0 24 25" fill="none" xmlns="http://www.w3.org/2000/svg">
<path d="M1.50928 12.6003C1.50928 15.3851 2.61552 18.0558 4.58466 20.0249C6.55379 21.994 9.2245 23.1003 12.0093 23.1003C14.7941 23.1003 17.4648 21.994 19.4339 20.0249C21.403 18.0558 22.5093 15.3851 22.5093 12.6003C22.5093 9.81551 21.403 7.14479 19.4339 5.17566C17.4648 3.20653 14.7941 2.10028 12.0093 2.10028C9.2245 2.10028 6.55379 3.20653 4.58466 5.17566C2.61552 7.14479 1.50928 9.81551 1.50928 12.6003Z" stroke="white" stroke-linejoin="round"/>
<path d="M5.7453 9.29329C8.3023 8.61129 14.4803 7.91529 18.7313 10.5823" stroke="white" stroke-linecap="round" stroke-linejoin="round"/>
<path d="M6.2793 12.7203C8.3233 12.1013 13.3733 11.4753 17.2223 13.9153" stroke="white" stroke-linecap="round" stroke-linejoin="round"/>
<path d="M6.62531 15.8013C8.63831 15.2983 13.3673 14.8263 16.1843 16.9643" stroke="white" stroke-linecap="round" stroke-linejoin="round"/>
</svg>
