<svg width="24" height="25" viewBox="0 0 24 25" fill="none" xmlns="http://www.w3.org/2000/svg">
<path d="M18.0093 7.10028C17.8767 7.10028 17.7495 7.0476 17.6557 6.95383C17.562 6.86007 17.5093 6.73289 17.5093 6.60028C17.5093 6.46767 17.562 6.3405 17.6557 6.24673C17.7495 6.15296 17.8767 6.10028 18.0093 6.10028" stroke="white" stroke-linejoin="round"/>
<path d="M18.0093 7.10028C18.1419 7.10028 18.2691 7.0476 18.3628 6.95383C18.4566 6.86007 18.5093 6.73289 18.5093 6.60028C18.5093 6.46767 18.4566 6.3405 18.3628 6.24673C18.2691 6.15296 18.1419 6.10028 18.0093 6.10028" stroke="white" stroke-linejoin="round"/>
<path d="M7.00928 12.6003C7.00928 13.9264 7.53606 15.1981 8.47374 16.1358C9.41143 17.0735 10.6832 17.6003 12.0093 17.6003C13.3354 17.6003 14.6071 17.0735 15.5448 16.1358C16.4825 15.1981 17.0093 13.9264 17.0093 12.6003C17.0093 11.2742 16.4825 10.0024 15.5448 9.06475C14.6071 8.12706 13.3354 7.60028 12.0093 7.60028C10.6832 7.60028 9.41143 8.12706 8.47374 9.06475C7.53606 10.0024 7.00928 11.2742 7.00928 12.6003Z" stroke="white" stroke-linejoin="round"/>
<path d="M16.5093 2.10028H7.50928C5.91798 2.10028 4.39185 2.73242 3.26664 3.85764C2.14142 4.98286 1.50928 6.50898 1.50928 8.10028V17.1003C1.50928 18.6916 2.14142 20.2177 3.26664 21.3429C4.39185 22.4681 5.91798 23.1003 7.50928 23.1003H16.5093C18.1006 23.1003 19.6267 22.4681 20.7519 21.3429C21.8771 20.2177 22.5093 18.6916 22.5093 17.1003V8.10028C22.5093 6.50898 21.8771 4.98286 20.7519 3.85764C19.6267 2.73242 18.1006 2.10028 16.5093 2.10028Z" stroke="white"/>
</svg>
