<svg width="24" height="25" viewBox="0 0 24 25" fill="none" xmlns="http://www.w3.org/2000/svg">
<path d="M17.0093 17.1003C15.2693 18.8403 11.2603 17.3573 9.25625 15.3533C7.25225 13.3493 5.76925 9.34028 7.50925 7.60028C8.01325 7.09628 8.70725 7.03628 9.13125 7.05628C9.37625 7.06728 9.58825 7.21128 9.73125 7.41128L10.6833 8.74528C10.8207 8.93791 10.8854 9.17305 10.8658 9.40888C10.8462 9.64472 10.7436 9.86596 10.5763 10.0333L9.67525 10.9343C9.84125 11.4343 10.3753 12.6343 11.1753 13.4343C11.9753 14.2343 13.1753 14.7683 13.6753 14.9343L14.5763 14.0343C14.7434 13.8668 14.9646 13.764 15.2005 13.7442C15.4363 13.7244 15.6715 13.789 15.8643 13.9263L17.1983 14.8783C17.3983 15.0213 17.5423 15.2333 17.5533 15.4783C17.5733 15.9023 17.5133 16.5963 17.0093 17.1003Z" stroke="white" stroke-linejoin="round"/>
<path d="M12.0093 23.1003C17.8083 23.1003 22.5093 18.3993 22.5093 12.6003C22.5093 6.80128 17.8083 2.10028 12.0093 2.10028C6.21028 2.10028 1.50928 6.80128 1.50928 12.6003C1.50928 14.5123 2.02028 16.3063 2.91428 17.8503L2.03428 22.5753L6.75928 21.6953C8.35477 22.6184 10.166 23.1031 12.0093 23.1003Z" stroke="white" stroke-linejoin="round"/>
</svg>
