<svg width="34" height="22" viewBox="0 0 34 22" fill="none" xmlns="http://www.w3.org/2000/svg">
<g clip-path="url(#clip0_261_373)">
<path d="M29.7273 3.7664C29.7273 4.31869 29.2796 4.7664 28.7273 4.7664H21.6371C21.0848 4.7664 20.6371 4.31869 20.6371 3.7664V3.19974C20.6371 2.64745 21.0848 2.19974 21.6371 2.19974H28.7273C29.2796 2.19974 29.7273 2.64745 29.7273 3.19974V3.7664ZM30.566 17.5997C31.2529 17.5997 31.716 18.2778 31.3076 18.8302C30.314 20.1744 28.3919 21.4497 25.3445 21.4497C21.3526 21.4497 18.1191 19.2309 18.1191 14.1668C18.1191 9.14899 21.1384 6.56949 25.2173 6.56949C29.2195 6.56949 31.6635 8.85639 32.1972 12.2495C32.2689 12.7091 32.31 13.2818 32.3215 14.0105C32.3301 14.5569 31.8818 14.9959 31.3353 14.9959H21.8967C22.0541 18.8363 25.8467 19.2101 27.5235 17.9104C27.752 17.7333 28.0206 17.5997 28.3097 17.5997H30.566ZM21.9876 12.4664H28.4352C28.2988 10.4811 26.96 9.61869 25.2186 9.61869C23.3148 9.61869 22.2616 10.6043 21.9876 12.4664ZM9.55487 21.4343H2.15814C1.60586 21.4343 1.15814 20.9866 1.15814 20.4343V3.22669C1.15814 2.6744 1.60586 2.22669 2.15814 2.22669H10.1873C17.165 2.32869 17.4259 8.95726 13.9245 10.9786C13.8484 11.0224 13.856 11.1402 13.9368 11.1745C18.2164 12.9899 18.2203 21.4343 9.55487 21.4343ZM5.05393 9.89974H9.70811C12.965 9.89974 13.4818 6.04974 9.30294 6.04974H5.05393V9.89974ZM9.45748 13.7497H5.05393V17.6203H9.39255C13.3598 17.6203 13.1169 13.7497 9.45748 13.7497Z" stroke="white"/>
</g>
<defs>
<clipPath id="clip0_261_373">
<rect width="33" height="22" fill="white" transform="translate(0.25)"/>
</clipPath>
</defs>
</svg>
