<svg width="24" height="25" viewBox="0 0 24 25" fill="none" xmlns="http://www.w3.org/2000/svg">
<path d="M1.50928 4.10028C1.50928 4.63071 1.71999 5.13942 2.09506 5.51449C2.47014 5.88957 2.97884 6.10028 3.50928 6.10028C4.03971 6.10028 4.54842 5.88957 4.92349 5.51449C5.29856 5.13942 5.50928 4.63071 5.50928 4.10028C5.50928 3.56985 5.29856 3.06114 4.92349 2.68607C4.54842 2.31099 4.03971 2.10028 3.50928 2.10028C2.97884 2.10028 2.47014 2.31099 2.09506 2.68607C1.71999 3.06114 1.50928 3.56985 1.50928 4.10028Z" stroke="white" stroke-linejoin="round"/>
<path d="M1.50928 23.1003V9.10028H5.50928V23.1003H1.50928Z" stroke="white" stroke-linejoin="round"/>
<path d="M8.00928 9.10028V23.1003H12.0093V16.1923C12.0093 15.1003 13.0093 13.1003 15.9043 13.1003C17.5473 13.1003 18.5093 13.9453 18.5093 15.6003V23.1003H22.5093V15.6003C22.5093 14.2913 22.1973 12.6633 21.1153 11.3233C19.9713 9.90628 18.2023 9.10028 15.9053 9.10028C14.3923 9.10028 13.0703 9.71528 12.0093 10.4663V9.10028H8.00928Z" stroke="white" stroke-linejoin="round"/>
</svg>
